# xmcd CD database file
#
# Track frame offsets:
#	183
#	14283
#	29588
#	43655
#	55835
#	65708
#	79970
#	97848
#	118205
#	128965
#	144568
#	161055
#	176180
#	187453
#	199153
#	215635
#
# Disc length: 3087 seconds
#
# Revision: 0
# Processed by: cddbd v1.4PL0 Copyright (c) Steve Scherf et al.
# Submitted via: CDex 1.50
#
DISCID=fc0c0d10
DTITLE=Rien ne va Plus - Rien ne va Plus
DYEAR=1900
DGENRE=Blues
TTITLE0=Mr Blister
TTITLE1=Baby Please don't go
TTITLE2=Blue morning
TTITLE3=He's a real gone guy
TTITLE4=I'm a woman
TTITLE5=Jai's waltz
TTITLE6=Mumbo-jumbo
TTITLE7=Sweet expectation street
TTITLE8=This joint's to hip for me
TTITLE9=Blues in D
TTITLE10=My mother's eyes
TTITLE11=Lady Maybe
TTITLE12=Buddy stay off of that wine
TTITLE13=That's a plenty
TTITLE14=Memory lane
TTITLE15=Rien ne va plus
EXTD=
EXTT0=
EXTT1=
EXTT2=
EXTT3=
EXTT4=
EXTT5=
EXTT6=
EXTT7=
EXTT8=
EXTT9=
EXTT10=
EXTT11=
EXTT12=
EXTT13=
EXTT14=
EXTT15=
PLAYORDER=
